<?xml version="1.0" encoding="UTF-8"?>
<svg width="100px" height="100px" viewBox="0 0 100 100" version="1.1" xmlns="http://www.w3.org/2000/svg" xmlns:xlink="http://www.w3.org/1999/xlink">
    <!-- Generator: Sketch 53.1 (72631) - https://sketchapp.com -->
    <title>Combined Shape</title>
    <desc>Created with Sketch.</desc>
    <g id="BR6_Registration_WebMobile" stroke="none" stroke-width="1" fill="none" fill-rule="evenodd">
        <path d="M50,100 C22.3857625,100 0,77.6142375 0,50 C0,22.3857625 22.3857625,0 50,0 C77.6142375,0 100,22.3857625 100,50 C100,77.6142375 77.6142375,100 50,100 Z M30.3874839,77.5145263 L34.2461349,70.8563333 L22.7329971,70.8563333 L21.7524809,72.548148 C20.3781232,74.9197878 21.1967155,77.9633061 23.5773138,79.3324921 C24.3604106,79.7828613 25.2162933,79.9968214 26.061607,79.9968214 C27.7859355,79.9966227 29.4651965,79.1060162 30.3874839,77.5145263 Z M20.9853372,66.8830718 L58.8459824,66.8830718 L53.0893138,56.949918 L42.3052317,56.949918 L59.4019472,27.4490472 C60.0677889,26.3001786 60.244868,24.9615868 59.9000821,23.68021 C59.5554956,22.3988331 58.730522,21.3278405 57.5773138,20.6645045 C55.1973138,19.2953186 52.1422991,20.1106318 50.7673431,22.4824703 L50,23.806361 L49.2326569,22.4822716 C47.8582991,20.1108305 44.8032845,19.2951199 42.4226862,20.6643058 L42.4224868,20.6643058 C40.0418886,22.0336904 39.2234956,25.0772087 40.5978534,27.4488485 L44.2433314,33.7393162 L30.7920938,56.949918 L20.9853372,56.949918 C18.2364223,56.949918 16,59.1779244 16,61.9164949 C16,64.6550654 18.2364223,66.8830718 20.9853372,66.8830718 Z M79.0146628,66.8830718 C81.7635777,66.8830718 84,64.6550654 84,61.9164949 C84,59.1779244 81.7635777,56.949918 79.0146628,56.949918 L69.2079062,56.949918 L58.0588974,37.712379 L52.3024282,47.6455328 L69.6123167,77.5141289 C70.2781584,78.6631962 71.3531965,79.4850653 72.6396129,79.8285538 C73.069349,79.943381 73.504868,80 73.9379941,80 C74.8018534,80 75.6545455,79.7741201 76.4228856,79.3322934 C78.8032845,77.9629088 79.6218768,74.9193905 78.2473196,72.5479494 L74.9643754,66.8830718 L79.0146628,66.8830718 Z" id="Combined-Shape" fill="#FFFFFF"></path>
    </g>
</svg>